<svg width="598" height="222" viewBox="0 0 598 222" fill="none" xmlns="http://www.w3.org/2000/svg">
<g clip-path="url(#clip0_3070_706)">
<path fill-rule="evenodd" clip-rule="evenodd" d="M118.628 31.1117C126.343 17.7291 145.671 17.7722 153.327 31.1889L184.653 86.0883C192.26 99.421 182.632 116 167.282 116H118C112.478 116 108.001 111.523 108 106C108 100.478 112.478 96.0004 118 96.0004H167.282L135.955 41.1L46.6635 195.995C43.9052 200.779 37.7909 202.421 33.0063 199.663C28.2216 196.905 26.5792 190.791 29.3373 186.006L118.628 31.1117ZM149.5 128C169.106 128.001 185 143.894 185 163.5C185 183.106 169.106 199 149.5 199C129.894 199 114.001 183.106 114 163.5C114 143.894 129.894 128 149.5 128ZM149.5 148C140.94 148 134 154.94 134 163.5C134.001 172.061 140.94 179 149.5 179C158.061 179 165 172.061 165 163.5C165 154.94 158.061 148.001 149.5 148ZM82.3178 26.0395C85.0578 21.2444 91.1662 19.578 95.9613 22.3178C100.756 25.0579 102.423 31.1664 99.683 35.9613L39.683 140.961C36.9431 145.756 30.8345 147.422 26.0395 144.683C21.2445 141.943 19.5781 135.835 22.3178 131.039L82.3178 26.0395ZM37.5004 26.0004C46.6129 26.0006 54.0004 33.3878 54.0004 42.5004C54.0002 51.6128 46.6128 59.0002 37.5004 59.0004C28.3878 59.0004 21.0006 51.6129 21.0004 42.5004C21.0004 33.3877 28.3877 26.0004 37.5004 26.0004Z" fill="#FAFAFA"/>
<path d="M225.368 98L239.336 46.88H251.864L265.832 98H255.536L245.6 59.264L235.664 98H225.368ZM234.8 87.128L237.392 78.2H253.808L256.4 87.128H234.8ZM281.572 98V59.408H288.772L289.564 69.488H288.916C289.3 66.128 290.26 63.608 291.796 61.928C293.38 60.248 295.684 59.408 298.708 59.408H307.348V67.4H299.428C297.604 67.4 296.092 67.712 294.892 68.336C293.692 68.96 292.804 69.896 292.228 71.144C291.652 72.392 291.364 73.952 291.364 75.824V98H281.572ZM272.356 98V90.224H303.1V98H272.356ZM272.356 67.184V59.408H287.404V67.184H272.356ZM312.36 98V59.408H320.352L320.64 68.264L319.848 68.048C320.424 64.88 321.384 62.504 322.728 60.92C324.12 59.336 325.848 58.544 327.912 58.544C330.312 58.544 332.04 59.36 333.096 60.992C334.2 62.576 334.944 65.024 335.328 68.336H334.248C334.776 65.12 335.832 62.696 337.416 61.064C339 59.384 340.944 58.544 343.248 58.544C346.08 58.544 348.168 59.576 349.512 61.64C350.856 63.656 351.528 66.848 351.528 71.216V98H342.384V73.16C342.384 70.664 342.144 68.984 341.664 68.12C341.232 67.256 340.536 66.824 339.576 66.824C338.904 66.824 338.304 67.04 337.776 67.472C337.296 67.904 336.912 68.6 336.624 69.56C336.336 70.472 336.192 71.696 336.192 73.232V98H327.696V73.16C327.696 70.76 327.48 69.104 327.048 68.192C326.616 67.28 325.896 66.824 324.888 66.824C324.216 66.824 323.616 67.04 323.088 67.472C322.56 67.904 322.152 68.6 321.864 69.56C321.624 70.472 321.504 71.696 321.504 73.232V98H312.36ZM369.644 98.864C367.292 98.864 365.132 98.432 363.164 97.568C361.196 96.704 359.636 95.456 358.484 93.824C357.38 92.192 356.828 90.248 356.828 87.992C356.828 84.728 357.86 82.184 359.924 80.36C362.036 78.536 364.916 77.24 368.564 76.472L380.156 73.952C380.156 71.504 379.652 69.632 378.644 68.336C377.684 67.04 376.1 66.392 373.892 66.392C371.972 66.392 370.484 66.872 369.428 67.832C368.372 68.792 367.676 70.064 367.34 71.648L357.26 71.072C357.98 67.28 359.78 64.256 362.66 62C365.588 59.696 369.284 58.544 373.748 58.544C379.316 58.544 383.396 59.96 385.988 62.792C388.628 65.576 389.948 69.488 389.948 74.528V88.136C389.948 89.096 390.116 89.768 390.452 90.152C390.788 90.488 391.292 90.656 391.964 90.656H393.548V98C393.26 98.048 392.78 98.096 392.108 98.144C391.436 98.24 390.74 98.288 390.02 98.288C388.1 98.288 386.468 97.952 385.124 97.28C383.78 96.608 382.748 95.624 382.028 94.328C381.356 93.032 380.972 91.472 380.876 89.648H381.956C381.716 91.376 381.068 92.96 380.012 94.4C378.956 95.792 377.54 96.896 375.764 97.712C373.988 98.48 371.948 98.864 369.644 98.864ZM371.66 91.52C373.484 91.52 375.02 91.208 376.268 90.584C377.516 89.912 378.476 88.952 379.148 87.704C379.82 86.408 380.156 84.896 380.156 83.168V80.864L371.588 82.736C369.86 83.12 368.636 83.672 367.916 84.392C367.196 85.112 366.836 86.144 366.836 87.488C366.836 88.736 367.244 89.72 368.06 90.44C368.876 91.16 370.076 91.52 371.66 91.52ZM423.544 98C419.224 98 416.032 97.016 413.968 95.048C411.952 93.08 410.944 90.032 410.944 85.904V50.336H420.736V84.968C420.736 86.744 421.144 88.064 421.96 88.928C422.824 89.792 424.144 90.224 425.92 90.224H434.992V98H423.544ZM399.856 67.184V59.408H434.992V67.184H399.856ZM456.923 98.864C453.323 98.864 450.467 97.664 448.355 95.264C446.243 92.816 445.187 89.288 445.187 84.68V59.408H454.979V82.232C454.979 85.208 455.459 87.344 456.419 88.64C457.427 89.936 458.867 90.584 460.739 90.584C462.707 90.584 464.363 89.84 465.707 88.352C467.099 86.864 467.795 84.68 467.795 81.8V59.408H477.515V98H468.515L468.299 86.912L469.451 87.2C468.923 90.896 467.555 93.776 465.347 95.84C463.187 97.856 460.379 98.864 456.923 98.864ZM497.431 98V59.408H504.631L505.423 69.488H504.775C505.159 66.128 506.119 63.608 507.655 61.928C509.239 60.248 511.543 59.408 514.567 59.408H523.207V67.4H515.287C513.463 67.4 511.951 67.712 510.751 68.336C509.551 68.96 508.663 69.896 508.087 71.144C507.511 72.392 507.223 73.952 507.223 75.824V98H497.431ZM488.215 98V90.224H518.959V98H488.215ZM488.215 67.184V59.408H503.263V67.184H488.215ZM548.091 98.864C544.491 98.864 541.299 98.048 538.515 96.416C535.779 94.736 533.619 92.384 532.035 89.36C530.499 86.336 529.731 82.784 529.731 78.704C529.731 74.72 530.499 71.216 532.035 68.192C533.571 65.168 535.707 62.816 538.443 61.136C541.179 59.408 544.347 58.544 547.947 58.544C551.499 58.544 554.619 59.384 557.307 61.064C560.043 62.744 562.179 65.12 563.715 68.192C565.251 71.216 566.019 74.792 566.019 78.92V81.368H539.811C540.051 84.248 540.915 86.456 542.403 87.992C543.939 89.48 545.907 90.224 548.307 90.224C550.083 90.224 551.595 89.816 552.843 89C554.091 88.136 554.955 86.984 555.435 85.544L565.227 86.192C563.931 90.224 561.819 93.344 558.891 95.552C556.011 97.76 552.411 98.864 548.091 98.864ZM539.955 74.672H555.579C555.339 72.176 554.523 70.304 553.131 69.056C551.739 67.808 549.987 67.184 547.875 67.184C545.667 67.184 543.867 67.832 542.475 69.128C541.131 70.376 540.291 72.224 539.955 74.672ZM241.64 170V162.224H249.56V170H241.64ZM272.428 170V118.88H279.412L300.22 164.6V118.88H305.116V170H298.132L277.324 124.28V170H272.428ZM317.04 170V118.88H347.712V123.632H321.936V142.064H346.848V146.744H321.936V165.248H348.288V170H317.04ZM372.668 170V123.632H356.396V118.88H393.836V123.632H377.564V170H372.668ZM405.328 170L399.063 118.88H404.176L409.72 167.192H409.144L415.624 124.64H420.952L427.432 167.192H426.856L432.4 118.88H437.512L431.248 170H423.904L417.496 128.312H419.08L412.672 170H405.328ZM461.459 171.152C457.523 171.152 454.163 170.12 451.379 168.056C448.595 165.944 446.459 162.896 444.971 158.912C443.531 154.928 442.811 150.128 442.811 144.512C442.811 138.848 443.531 134.024 444.971 130.04C446.459 126.056 448.595 123.008 451.379 120.896C454.163 118.784 457.523 117.728 461.459 117.728C465.395 117.728 468.755 118.784 471.539 120.896C474.323 123.008 476.435 126.056 477.875 130.04C479.363 134.024 480.107 138.848 480.107 144.512C480.107 150.128 479.363 154.928 477.875 158.912C476.435 162.896 474.323 165.944 471.539 168.056C468.755 170.12 465.395 171.152 461.459 171.152ZM461.459 166.328C464.339 166.328 466.787 165.488 468.803 163.808C470.819 162.128 472.331 159.656 473.339 156.392C474.395 153.128 474.923 149.168 474.923 144.512C474.923 139.856 474.395 135.896 473.339 132.632C472.331 129.32 470.819 126.824 468.803 125.144C466.787 123.416 464.339 122.552 461.459 122.552C458.579 122.552 456.131 123.416 454.115 125.144C452.099 126.824 450.563 129.32 449.507 132.632C448.499 135.896 447.995 139.856 447.995 144.512C447.995 149.168 448.499 153.128 449.507 156.392C450.563 159.656 452.099 162.128 454.115 163.808C456.131 165.488 458.579 166.328 461.459 166.328ZM488.431 170V118.88H503.839C509.023 118.88 513.127 120.2 516.151 122.84C519.175 125.48 520.687 129.152 520.687 133.856C520.687 136.352 520.159 138.536 519.103 140.408C518.047 142.232 516.631 143.696 514.855 144.8C513.127 145.856 511.231 146.504 509.167 146.744L508.879 145.88C512.143 146.024 514.687 146.816 516.511 148.256C518.383 149.696 519.463 152.024 519.751 155.24L520.975 170H516.079L514.927 155.888C514.783 154.304 514.375 152.984 513.703 151.928C513.079 150.872 512.071 150.104 510.679 149.624C509.335 149.096 507.511 148.832 505.207 148.832H493.327V170H488.431ZM493.327 144.08H503.767C507.559 144.08 510.463 143.216 512.479 141.488C514.543 139.712 515.575 137.168 515.575 133.856C515.575 130.496 514.543 127.952 512.479 126.224C510.463 124.448 507.559 123.56 503.767 123.56H493.327V144.08ZM535.275 153.728V147.176L559.539 118.88H565.515L535.275 153.728ZM531.027 170V118.88H535.923V170H531.027ZM560.259 170L541.683 143.432L545.067 139.904L566.307 170H560.259Z" fill="#FAFAFA"/>
</g>
<defs>
<clipPath id="clip0_3070_706">
<rect width="598" height="222" fill="white"/>
</clipPath>
</defs>
</svg>
